<?xml version="1.0" encoding="UTF-8"?>
<svg version="1.1" xmlns="http://www.w3.org/2000/svg" width="412" height="365">
<path d="M0 0 C30.99850504 -0.04574133 61.99700106 -0.08107904 92.9955319 -0.10213066 C96.66499007 -0.10463172 100.33444818 -0.1072204 104.00390625 -0.10986328 C105.09957379 -0.11065021 105.09957379 -0.11065021 106.21737602 -0.11145304 C118.00528597 -0.12012773 129.79317617 -0.13588132 141.58107445 -0.15430559 C153.69942278 -0.17308672 165.81776085 -0.18413398 177.93612313 -0.18817699 C184.73316797 -0.19066189 191.53017184 -0.1965787 198.32720184 -0.21146011 C204.73918142 -0.22514618 211.15109848 -0.22920059 217.56309128 -0.22621536 C219.90257737 -0.22676063 222.2420658 -0.23067181 224.58153915 -0.23841095 C252.79330591 -0.32707284 280.05129774 0.20080112 301.3515625 21.265625 C312.22801851 32.49500436 319.24876735 46.55989263 322 62 C322.226875 63.2375 322.45375 64.475 322.6875 65.75 C324.62528459 85.70505836 321.88470045 106.56100032 309.5625 123 C308.40031369 124.35545454 307.21291113 125.68974025 306 127 C305.39542969 127.68320313 304.79085938 128.36640625 304.16796875 129.0703125 C291.47918845 142.66358834 272.32925608 150.27383736 254 152 C250.19852971 152.13046455 246.40097838 152.1166099 242.59765625 152.09765625 C241.51995468 152.0962413 240.44225311 152.09482635 239.33189392 152.09336853 C235.90873371 152.08779611 232.48564025 152.07524868 229.0625 152.0625 C226.73372491 152.05748144 224.40494878 152.05291915 222.07617188 152.04882812 C216.38409202 152.03783571 210.69205078 152.02112514 205 152 C205 151.34 205 150.68 205 150 C204.34 149.67 203.68 149.34 203 149 C203.66 149 204.32 149 205 149 C204.82597656 147.9996875 204.65195313 146.999375 204.47265625 145.96875 C203.6234119 139.17479523 204.15637637 132.32065205 204.4375 125.5 C204.49082555 124.09116809 204.54356489 122.68231385 204.59570312 121.2734375 C204.7247174 117.848695 204.85965487 114.42429376 205 111 C205.825 111.00523682 206.65 111.01047363 207.5 111.01586914 C235.05581117 112.67296978 235.05581117 112.67296978 261 106 C262.0725 105.443125 263.145 104.88625 264.25 104.3125 C271.12411328 98.53199565 274.53658977 91.0165481 275.75 82.25 C276.42202386 73.96170567 274.83691723 67.38270407 270.0234375 60.59375 C269 59 269 59 269 57 C268.443125 56.7525 267.88625 56.505 267.3125 56.25 C265 55 265 55 262.625 53 C254.7871638 47.02831527 243.93517096 47.84637164 234.53515625 47.79467773 C233.41232742 47.78477814 232.2894986 47.77487854 231.13264465 47.76467896 C227.44261746 47.73323698 223.75257742 47.70837524 220.0625 47.68359375 C217.49560218 47.66300927 214.92870763 47.64201241 212.36181641 47.62062073 C206.3095156 47.5711746 200.25719693 47.5258697 194.20484924 47.48259836 C187.30996446 47.43307016 180.41512525 47.37821025 173.52028465 47.32291877 C159.34689931 47.2093774 145.17346943 47.10247867 131 47 C131.01252808 48.29735077 131.02505615 49.59470154 131.03796387 50.93136597 C131.15779424 63.36812369 131.27544701 75.80490051 131.39115143 88.24169731 C131.45065138 94.63021744 131.51082869 101.01872945 131.57275391 107.40722656 C131.87139331 138.27236688 132.08350069 169.13332625 132 200 C128.51220908 200 126.77253479 199.11849191 123.6328125 197.62890625 C122.58222656 197.13712891 121.53164062 196.64535156 120.44921875 196.13867188 C119.35222656 195.61853516 118.25523437 195.09839844 117.125 194.5625 C114.96331476 193.53793794 112.79932687 192.51821683 110.6328125 191.50390625 C109.19252686 190.82050171 109.19252686 190.82050171 107.72314453 190.12329102 C105.13170596 189.05432841 102.76060097 188.44148279 100 188 C100 187.34 100 186.68 100 186 C98.824375 185.6596875 98.824375 185.6596875 97.625 185.3125 C92.91857225 183.60844857 88.4769859 181.23849295 84 179 C84 135.44 84 91.88 84 47 C42.42 47.495 42.42 47.495 0 48 C-0.93161521 43.34192394 -1.14488507 39.08486279 -1.1328125 34.375 C-1.13376923 33.5504834 -1.13472595 32.7259668 -1.13571167 31.87646484 C-1.13639024 30.13834557 -1.13455854 28.40022373 -1.13037109 26.66210938 C-1.12501827 24.00905641 -1.13032705 21.35617273 -1.13671875 18.703125 C-1.13605791 17.01041629 -1.13477663 15.31770769 -1.1328125 13.625 C-1.13483673 12.83528809 -1.13686096 12.04557617 -1.13894653 11.23193359 C-1.12248264 7.34456022 -0.82817538 3.79052464 0 0 Z " fill="#000000" transform="translate(41,104)"/>
<path d="M0 0 C1.13625824 -0.00262848 1.13625824 -0.00262848 2.29547119 -0.00531006 C4.77171194 -0.00966991 7.24787975 -0.00680963 9.72412109 -0.00341797 C11.46894341 -0.00409311 13.21376564 -0.00506489 14.95858765 -0.00631714 C18.6081431 -0.00778655 22.25767398 -0.00566552 25.90722656 -0.00097656 C30.54309888 0.00469472 35.17891295 0.00145343 39.8147831 -0.00454903 C43.4182884 -0.00819699 47.02178036 -0.00699637 50.6252861 -0.00442123 C52.3321979 -0.00376229 54.03911098 -0.00454349 55.74602127 -0.00690079 C88.62018665 -0.04232054 88.62018665 -0.04232054 94.87255859 5.12939453 C100.26564103 11.09302977 101.18461136 16.25409018 101.07958984 24.18798828 C100.63247064 30.54045546 97.52518172 33.80849976 92.98193359 37.83251953 C77.52528274 47.33549746 31.83688906 42.11119962 30.87255859 42.12939453 C30.54255859 81.72939453 30.21255859 121.32939453 29.87255859 162.12939453 C24.59255859 164.43939453 19.31255859 166.74939453 13.87255859 169.12939453 C8.3004885 171.72165589 2.73261849 174.32017174 -2.81713867 176.9597168 C-4.63301443 177.82213364 -6.45243984 178.67706411 -8.27197266 179.53173828 C-9.32747314 180.03181396 -10.38297363 180.53188965 -11.47045898 181.04711914 C-14.12744141 182.12939453 -14.12744141 182.12939453 -17.12744141 182.12939453 C-17.12744141 122.39939453 -17.12744141 62.66939453 -17.12744141 1.12939453 C-11.29243879 0.48106091 -5.81618171 -0.01701009 0 0 Z " fill="#006DCD" transform="translate(204.12744140625,162.87060546875)"/>
<path d="M0 0 C7.39977877 5.71111131 10.35106756 12.83283818 12.0859375 21.80078125 C13.07982489 29.75188034 9.87323897 37.57003873 5.4609375 44.11328125 C-0.09251706 50.96019864 -8.50204685 55.09324849 -17.1796875 56.05078125 C-26.14913252 56.50207408 -33.84638338 53.86348189 -40.7890625 48.17578125 C-47.22419558 42.01742809 -50.95098547 34.08127064 -51.2265625 25.17578125 C-51.10840977 16.24868621 -47.08698569 8.16490118 -40.9140625 1.80078125 C-28.12947065 -8.69751497 -13.84973046 -8.6772801 0 0 Z " fill="#000000" transform="translate(83.9140625,242.19921875)"/>
<path d="M0 0 C6.45541851 2.16167684 11.29731004 8.09241631 14.5546875 13.85546875 C18.00794547 21.43201981 18.63431485 29.83470182 15.9296875 37.73046875 C11.67334138 47.67156189 5.67137453 53.3037062 -4.2578125 57.73046875 C-12.20636949 60.36945288 -20.58317154 59.63158861 -28.12890625 56.1796875 C-39.34048887 49.77036793 -43.46421041 40.87970292 -46.84375 28.83203125 C-47.4453125 25.85546875 -47.4453125 25.85546875 -46.4453125 23.85546875 C-43.62009859 22.84349612 -40.81132655 21.92300965 -37.9453125 21.04296875 C-31.32914503 18.91791262 -25.25664858 16.74476761 -19.4453125 12.85546875 C-18.61773437 12.30890625 -17.79015625 11.76234375 -16.9375 11.19921875 C-12.30915995 8.04918433 -8.06085648 4.802238 -4.11328125 0.82421875 C-2.4453125 -0.14453125 -2.4453125 -0.14453125 0 0 Z " fill="#000001" transform="translate(356.4453125,239.14453125)"/>
<path d="M0 0 C5.88651238 4.9857745 9.22804811 11.93505038 10.3828125 19.51171875 C10.75727314 27.46276627 8.1802657 34.548133 3.3125 40.8125 C-2.46116865 47.01113411 -9.80871862 50.01381924 -18.1875 50.3125 C-26.78136937 50.16974469 -33.26559704 46.31941032 -39.50390625 40.68359375 C-41 39 -41 39 -42 36 C-42.515625 34.865625 -43.03125 33.73125 -43.5625 32.5625 C-46.13294785 25.64010578 -46.17049929 18.04173676 -43.375 11.1875 C-39.06051011 2.87421461 -33.06344841 -2.6455172 -24.078125 -5.640625 C-15.47598628 -7.1282129 -7.09727774 -4.87937845 0 0 Z " fill="#006ECE" transform="translate(221,21)"/>
<path d="M0 0 C3.10223663 1.37877183 5.70412123 3.19658204 8.41650391 5.22485352 C14.56812816 9.81615582 20.91341623 13.83701954 27.625 17.5625 C28.39473145 17.99175781 29.16446289 18.42101562 29.95751953 18.86328125 C33.33169952 20.70306427 36.27045 22.0710446 40 23 C41.24023168 23.58792586 42.46423652 24.21102306 43.671875 24.86328125 C48.06409097 27.11536047 52.5579135 28.68212225 57.25 30.1875 C58.03890625 30.44724609 58.8278125 30.70699219 59.640625 30.97460938 C63.07506836 32.09718503 66.4857017 33.1538379 70 34 C70.05395478 35.62463842 70.09277195 37.24978541 70.125 38.875 C70.14820313 39.77992188 70.17140625 40.68484375 70.1953125 41.6171875 C70 44 70 44 68 46 C68 45.34 68 44.68 68 44 C67.08347656 43.94005859 67.08347656 43.94005859 66.1484375 43.87890625 C40.73447664 40.97956705 14.7995279 24.37375108 -5 9 C-4.21616433 5.13857796 -2.57189568 2.98671756 0 0 Z " fill="#030506" transform="translate(107,282)"/>
<path d="M0 0 C3.71815454 0.59784208 6.64968903 1.64866751 9.9921875 3.37109375 C10.93715088 3.85779541 11.88211426 4.34449707 12.85571289 4.84594727 C13.85207764 5.37115967 14.84844238 5.89637207 15.875 6.4375 C16.90423584 6.97882568 17.93347168 7.52015137 18.99389648 8.07788086 C32.74383034 15.4139769 44.907056 24.21940188 57 34 C57.95648438 34.72445312 58.91296875 35.44890625 59.8984375 36.1953125 C60.59195313 36.79085937 61.28546875 37.38640625 62 38 C62 38.66 62 39.32 62 40 C55.69980186 40.96104717 49.86726954 41.51709915 44.3984375 37.9375 C41.88597046 36.08591879 39.47730197 34.11062209 37.05078125 32.1484375 C30.00389007 26.48647438 21.8869331 22.36175065 14 18 C13.24960449 17.57960449 12.49920898 17.15920898 11.72607422 16.72607422 C9.63558577 15.55664486 7.53861516 14.40020606 5.4375 13.25 C4.81230469 12.90235596 4.18710938 12.55471191 3.54296875 12.1965332 C2.06091745 11.40105719 0.53352895 10.69104782 -1 10 C-1.99 10.495 -1.99 10.495 -3 11 C-3.32613618 6.32538149 -2.70582788 3.83325617 0 0 Z " fill="#030507" transform="translate(239,57)"/>
<path d="M0 0 C3.22265625 5.17578125 3.22265625 5.17578125 4 7 C3 10 3 10 1.33618164 11.08398438 C0.61809326 11.41720703 -0.09999512 11.75042969 -0.83984375 12.09375 C-1.64679688 12.47861572 -2.45375 12.86348145 -3.28515625 13.26000977 C-4.16042969 13.66920654 -5.03570312 14.07840332 -5.9375 14.5 C-12.97700451 17.90786358 -19.82590017 21.48140729 -26.5 25.5625 C-27.24668945 26.01665283 -27.99337891 26.47080566 -28.76269531 26.9387207 C-32.10327526 29.01822057 -35.26894286 31.13596021 -38.26171875 33.6953125 C-45.49906467 39.86010115 -49.91878028 40.89971571 -59.140625 40.31640625 C-60.08421875 40.21199219 -61.0278125 40.10757813 -62 40 C-58.03476879 34.7658948 -53.5512831 31.0913542 -48.25 27.25 C-47.42250244 26.64526855 -46.59500488 26.04053711 -45.74243164 25.41748047 C-24.31975491 10 -24.31975491 10 -19 10 C-18.67 9.34 -18.34 8.68 -18 8 C-16.44946289 7.03857422 -16.44946289 7.03857422 -14.47265625 6.0546875 C-13.76302734 5.70019531 -13.05339844 5.34570312 -12.32226562 4.98046875 C-11.57654297 4.61566406 -10.83082031 4.25085937 -10.0625 3.875 C-9.32064453 3.50246094 -8.57878906 3.12992188 -7.81445312 2.74609375 C-2.26694139 0 -2.26694139 0 0 0 Z " fill="#030506" transform="translate(166,56)"/>
<path d="M0 0 C1.32 2.31 2.64 4.62 4 7 C3.195625 7.61875 2.39125 8.2375 1.5625 8.875 C-1.03874519 10.74164041 -1.03874519 10.74164041 -2 13 C-3.59089294 13.93378499 -5.18737079 14.8588613 -6.8046875 15.74609375 C-9.27067089 17.15460028 -11.62463719 18.69360556 -14 20.25 C-43.48717949 39 -43.48717949 39 -56 39 C-56 35.7 -56 32.4 -56 29 C-55.319375 28.731875 -54.63875 28.46375 -53.9375 28.1875 C-37.27348749 21.45098431 -19.59821492 13.45916683 -6.0859375 1.46875 C-4 0 -4 0 0 0 Z " fill="#030709" transform="translate(301,283)"/>
<path d="M0 0 C3.3 0 6.6 0 10 0 C9.86722656 1.05058594 9.73445313 2.10117188 9.59765625 3.18359375 C9.23159492 6.08544287 8.87029223 8.98784162 8.51171875 11.890625 C8.23478111 14.13235702 7.94942973 16.37121912 7.64453125 18.609375 C5.71749447 33.46710787 7.84564868 48.28830362 10 63 C6.7 62.67 3.4 62.34 0 62 C-2.25948299 53.98523016 -3.64211697 46.32078039 -4 38 C-4.04125 37.1646875 -4.0825 36.329375 -4.125 35.46875 C-4.27545531 29.3753101 -3.73436533 23.36825022 -3.125 17.3125 C-3.00741333 16.11838501 -3.00741333 16.11838501 -2.88745117 14.90014648 C-2.33270752 9.78193156 -1.35139781 4.96837431 0 0 Z " fill="#020303" transform="translate(66,162)"/>
<path d="M0 0 C5.98452926 2.43526299 8.74254568 8.31362032 11.375 13.9375 C12.71911206 20.52364909 12.63422104 26.74372502 10 33 C9.34 31.68 8.68 30.36 8 29 C8.66 29 9.32 29 10 29 C10.10477512 23.21408489 9.99250545 17.70690634 9 12 C8.34 12 7.68 12 7 12 C3.83368341 8.47848764 1.49671541 4.49014624 0 0 Z " fill="#0860AA" transform="translate(219,21)"/>
<path d="M0 0 C1.13888672 0.10828125 1.13888672 0.10828125 2.30078125 0.21875 C3.29464844 0.3115625 4.28851563 0.404375 5.3125 0.5 C6.79169922 0.63921875 6.79169922 0.63921875 8.30078125 0.78125 C11.04702139 1.04038857 11.04702139 1.04038857 14 1 C14 1.66 14 2.32 14 3 C14.66 3.33 15.32 3.66 16 4 C9.79029227 4.33266291 5.71735105 3.45029331 0 1 C0 0.67 0 0.34 0 0 Z " fill="#055BA5" transform="translate(190,67)"/>
<path d="M0 0 C1 4 1 4 1 4 Z " fill="#000000" transform="translate(123,248)"/>
<path d="M0 0 C3 1 3 1 3 1 Z " fill="#001C1C" transform="translate(164,325)"/>
<path d="M0 0 C3 1 3 1 3 1 Z " fill="#000000" transform="translate(64,299)"/>
<path d="" fill="#000000" transform="translate(0,0)"/>
<path d="" fill="#000000" transform="translate(0,0)"/>
<path d="" fill="#000000" transform="translate(0,0)"/>
<path d="M0 0 C2 1 2 1 2 1 Z " fill="#0000FF" transform="translate(195,343)"/>
<path d="" fill="#000000" transform="translate(0,0)"/>
<path d="" fill="#000000" transform="translate(0,0)"/>
<path d="" fill="#000000" transform="translate(0,0)"/>
<path d="" fill="#000000" transform="translate(0,0)"/>
<path d="" fill="#0000FF" transform="translate(0,0)"/>
<path d="" fill="#000000" transform="translate(0,0)"/>
<path d="" fill="#000000" transform="translate(0,0)"/>
<path d="" fill="#000000" transform="translate(0,0)"/>
<path d="" fill="#00007F" transform="translate(0,0)"/>
<path d="" fill="#000000" transform="translate(0,0)"/>
<path d="" fill="#000000" transform="translate(0,0)"/>
<path d="" fill="#000000" transform="translate(0,0)"/>
<path d="" fill="#000000" transform="translate(0,0)"/>
<path d="" fill="#00007F" transform="translate(0,0)"/>
<path d="" fill="#000000" transform="translate(0,0)"/>
<path d="" fill="#000000" transform="translate(0,0)"/>
<path d="" fill="#000000" transform="translate(0,0)"/>
<path d="" fill="#000000" transform="translate(0,0)"/>
<path d="" fill="#000000" transform="translate(0,0)"/>
<path d="" fill="#000000" transform="translate(0,0)"/>
<path d="" fill="#000000" transform="translate(0,0)"/>
<path d="" fill="#000000" transform="translate(0,0)"/>
<path d="" fill="#000000" transform="translate(0,0)"/>
<path d="" fill="#000000" transform="translate(0,0)"/>
<path d="" fill="#00003F" transform="translate(0,0)"/>
<path d="" fill="#000000" transform="translate(0,0)"/>
<path d="" fill="#000000" transform="translate(0,0)"/>
<path d="" fill="#000000" transform="translate(0,0)"/>
<path d="" fill="#000000" transform="translate(0,0)"/>
<path d="" fill="#000000" transform="translate(0,0)"/>
<path d="" fill="#000000" transform="translate(0,0)"/>
<path d="" fill="#000000" transform="translate(0,0)"/>
<path d="" fill="#000000" transform="translate(0,0)"/>
<path d="" fill="#000000" transform="translate(0,0)"/>
<path d="" fill="#000000" transform="translate(0,0)"/>
<path d="" fill="#000000" transform="translate(0,0)"/>
<path d="" fill="#000000" transform="translate(0,0)"/>
<path d="" fill="#000000" transform="translate(0,0)"/>
<path d="" fill="#000000" transform="translate(0,0)"/>
<path d="" fill="#00007F" transform="translate(0,0)"/>
<path d="" fill="#000000" transform="translate(0,0)"/>
<path d="" fill="#0000FF" transform="translate(0,0)"/>
<path d="" fill="#0000FF" transform="translate(0,0)"/>
<path d="" fill="#0000FF" transform="translate(0,0)"/>
<path d="" fill="#0000FF" transform="translate(0,0)"/>
<path d="" fill="#000000" transform="translate(0,0)"/>
<path d="" fill="#005555" transform="translate(0,0)"/>
<path d="" fill="#005555" transform="translate(0,0)"/>
<path d="" fill="#000000" transform="translate(0,0)"/>
<path d="" fill="#000000" transform="translate(0,0)"/>
<path d="" fill="#000000" transform="translate(0,0)"/>
<path d="" fill="#000000" transform="translate(0,0)"/>
<path d="" fill="#000000" transform="translate(0,0)"/>
<path d="" fill="#0000FF" transform="translate(0,0)"/>
<path d="" fill="#000000" transform="translate(0,0)"/>
<path d="" fill="#00007F" transform="translate(0,0)"/>
<path d="" fill="#000000" transform="translate(0,0)"/>
<path d="" fill="#000000" transform="translate(0,0)"/>
<path d="" fill="#000000" transform="translate(0,0)"/>
<path d="" fill="#000000" transform="translate(0,0)"/>
<path d="" fill="#000000" transform="translate(0,0)"/>
<path d="" fill="#000000" transform="translate(0,0)"/>
<path d="" fill="#000000" transform="translate(0,0)"/>
<path d="" fill="#000000" transform="translate(0,0)"/>
<path d="" fill="#000000" transform="translate(0,0)"/>
<path d="" fill="#333333" transform="translate(0,0)"/>
<path d="" fill="#000000" transform="translate(0,0)"/>
<path d="" fill="#005555" transform="translate(0,0)"/>
<path d="" fill="#000000" transform="translate(0,0)"/>
<path d="" fill="#000000" transform="translate(0,0)"/>
<path d="" fill="#007F7F" transform="translate(0,0)"/>
<path d="" fill="#000000" transform="translate(0,0)"/>
<path d="" fill="#0000FF" transform="translate(0,0)"/>
<path d="" fill="#0000FF" transform="translate(0,0)"/>
<path d="" fill="#0000FF" transform="translate(0,0)"/>
<path d="" fill="#007F7F" transform="translate(0,0)"/>
</svg>
